<svg xmlns="http://www.w3.org/2000/svg" viewBox="0 0 367 177" role="img" aria-labelledby="title"><title id="title">The DoorKeeper</title><g fill="#2E2D2C" fill-rule="evenodd"><path d="M 112.8 173.8 C 113.666 172.934 114 165.994 114 148.871 C 114 128.633 113.769 124.912 112.429 123.571 C 111 122.143 111.423 122 117.084 122 C 123.052 122 123.241 122.076 121.655 123.829 C 120.305 125.321 120 127.911 120 137.888 C 120 147.382 120.28 149.96 121.25 149.412 C 122.25 148.848 122.25 148.976 121.25 150.053 C 119.699 151.724 119.526 170.247 121.035 173.066 C 121.997 174.864 121.701 175 116.835 175 C 112.763 175 111.867 174.733 112.8 173.8 Z M 140 173.971 C 140 173.404 136.482 167.667 132.181 161.221 C 127.881 154.774 124.083 149.024 123.741 148.442 C 123.399 147.86 124.153 146.087 125.417 144.502 L 127.714 141.621 L 137.973 157.06 C 143.615 165.552 148.94 173.062 149.807 173.75 C 151.115 174.788 150.418 175 145.691 175 C 142.455 175 140 174.556 140 173.971 Z M 161.8 173.8 C 162.666 172.934 163 165.994 163 148.871 C 163 128.633 162.769 124.912 161.429 123.571 C 160 122.143 160.295 122 164.679 122 L 169.5 122.001 L 169.5 147.537 C 169.5 169.148 169.731 173.219 171 174.022 C 172.044 174.681 170.691 174.974 166.55 174.985 C 161.922 174.997 160.867 174.733 161.8 173.8 Z M 186.585 173.579 C 188.281 172.84 190.714 170.945 191.991 169.368 C 193.343 167.698 194.037 167.27 193.652 168.343 C 193.289 169.356 192.72 171.269 192.387 172.593 C 191.869 174.66 191.198 174.994 187.642 174.961 L 183.5 174.922 L 186.585 173.579 Z M 202.75 174.338 C 203.703 173.953 204 167.924 204 148.966 C 204 126.338 203.842 124.008 202.25 123.08 C 200.899 122.293 201.696 122.054 205.75 122.03 L 211 122 L 211 147.3 C 211 165.644 211.33 172.93 212.2 173.8 C 213.133 174.733 212.078 174.982 207.45 174.921 C 204.178 174.878 202.062 174.615 202.75 174.338 Z M 227.612 173.567 C 229.324 172.822 231.686 171.18 232.862 169.918 C 235.166 167.445 235.58 168.343 234.025 172.435 C 233.184 174.647 232.46 174.995 228.775 174.961 L 224.5 174.922 L 227.612 173.567 Z M 244.965 173.066 C 245.59 171.898 246 162.278 246 148.788 C 246 130.184 245.739 126.073 244.443 124.223 C 242.896 122.014 242.918 122 247.943 122 L 253 122 L 253 147.3 C 253 165.644 253.33 172.93 254.2 173.8 C 255.133 174.733 254.126 175 249.665 175 C 244.304 175 243.997 174.874 244.965 173.066 Z M 283.8 173.8 C 284.666 172.934 285 165.994 285 148.871 C 285 128.633 284.769 124.912 283.429 123.571 C 282 122.143 282.318 122 286.929 122 L 292 122 L 292 147.917 C 292 167.714 292.295 173.952 293.25 174.338 C 293.938 174.615 291.822 174.878 288.55 174.921 C 283.922 174.982 282.867 174.733 283.8 173.8 Z M 308 173.879 C 309.375 173.333 311.727 171.712 313.228 170.277 L 315.955 167.668 L 314.978 171.078 C 314.44 172.953 314 174.602 314 174.743 C 314 174.885 312.087 174.971 309.75 174.937 C 305.898 174.879 305.734 174.78 308 173.879 Z M 325.784 149.763 C 326.043 126.817 325.912 124.409 324.343 123.262 C 322.873 122.187 323.385 122 327.809 122 L 333 122 L 333.086 135.75 C 333.133 143.312 333.1 154.304 333.011 160.177 C 332.918 166.406 333.313 171.717 333.961 172.927 C 335.012 174.89 334.817 175 330.285 175.001 L 325.5 175.001 L 325.784 149.763 Z M 352.274 172.75 C 351.132 171.512 348.16 166.113 345.668 160.75 C 343.176 155.387 340.543 150.98 339.818 150.956 C 339.093 150.931 340.126 150.052 342.114 149.001 C 350.801 144.411 351.444 130.479 343.27 123.971 L 340.5 121.766 L 344 122.51 C 349.339 123.646 351.322 124.573 353.439 126.923 C 356.091 129.867 356.793 139.567 354.653 143.705 C 353.177 146.558 347.821 149.998 344.849 150.002 C 344.107 150.002 345.032 150.79 346.905 151.752 C 349.344 153.004 351.498 155.627 354.502 161 C 356.807 165.125 360.126 169.963 361.875 171.75 L 365.057 175 L 359.703 175 C 355.432 175 353.929 174.545 352.274 172.75 Z M 179.592 148.5 C 178.691 147.125 178.346 146 178.824 146 C 179.303 146 180.183 144.988 180.78 143.75 C 181.728 141.783 181.873 142.096 181.932 146.25 C 181.97 148.863 181.827 151 181.615 151 C 181.403 151 180.493 149.875 179.592 148.5 Z M 221.269 149.059 C 220.3 147.508 220.351 146.555 221.522 144.309 L 222.988 141.5 L 222.994 146.25 C 222.997 148.863 222.883 151 222.741 151 C 222.598 151 221.936 150.127 221.269 149.059 Z M 302.219 148.98 C 301.186 147.326 301.226 146.464 302.439 144.23 L 303.92 141.5 L 303.96 146.25 C 303.982 148.863 303.883 151 303.741 151 C 303.598 151 302.913 150.091 302.219 148.98 Z M 263.731 147.589 C 270.123 142.179 270.45 131.25 264.4 125.2 L 261.053 121.853 L 264.276 122.547 C 272.073 124.225 276 128.732 276 136 C 276 143.416 271.645 148.543 264.356 149.708 L 260.5 150.324 L 263.731 147.589 Z M 188.537 128.416 C 187.606 126.995 184.967 124.98 182.672 123.938 L 178.5 122.044 L 183.75 122.022 C 186.637 122.01 189.011 122.338 189.024 122.75 C 189.037 123.162 189.44 125.188 189.919 127.25 C 190.95 131.691 190.778 131.836 188.537 128.416 Z M 229.072 127.745 C 227.737 126.1 225.262 124.136 223.572 123.381 L 220.5 122.008 L 225.46 122.254 C 230.362 122.497 230.43 122.546 231.226 126.401 C 231.669 128.546 231.912 130.4 231.766 130.519 C 231.62 130.639 230.407 129.39 229.072 127.745 Z M 310.537 128.416 C 309.606 126.995 306.967 124.98 304.672 123.938 L 300.5 122.044 L 305.75 122.022 C 308.637 122.01 311.011 122.338 311.024 122.75 C 311.037 123.162 311.44 125.188 311.919 127.25 C 312.95 131.691 312.778 131.836 310.537 128.416 Z M 141.631 123.482 C 141.204 122.367 141.839 122 144.198 122 C 147.591 122 147.603 122.156 144.35 123.846 C 142.64 124.735 142.084 124.66 141.631 123.482 Z M 112.345 114.171 C 113.785 112.58 114 109.317 114 89 C 114 68.683 113.785 65.42 112.345 63.829 C 110.763 62.081 110.906 62 115.595 61.999 L 120.5 61.998 L 120.215 86.622 C 119.973 107.562 120.164 111.601 121.488 113.623 L 123.046 116 L 116.868 116 C 110.946 116 110.759 115.924 112.345 114.171 Z M 268.443 113.777 C 269.741 111.925 270 107.796 270 89 C 270 70.204 269.741 66.075 268.443 64.223 C 266.896 62.014 266.918 62 271.943 62 L 277 62 L 277 87.8 C 277 106.533 277.329 113.929 278.2 114.8 C 279.133 115.733 278.01 116 273.143 116 L 266.887 116 L 268.443 113.777 Z M 298 114.735 C 296.282 113.886 293.905 110.216 290.401 103 C 287.06 96.122 284.473 92.074 282.901 91.265 C 280.628 90.095 280.613 90.029 282.615 90.015 C 285.423 89.995 289.902 86.38 291.158 83.119 C 292.503 79.624 292.395 71.641 290.963 68.792 C 290.33 67.531 288.672 65.537 287.279 64.361 L 284.746 62.222 L 288.926 62.986 C 296.525 64.376 300.846 71.033 299.463 79.219 C 298.625 84.179 294.501 88.75 290.063 89.637 L 286.996 90.251 L 290.224 91.875 C 292.429 92.985 294.885 95.94 297.976 101.203 C 300.464 105.439 304.051 110.502 305.946 112.453 L 309.392 116 L 304.946 115.985 C 302.501 115.977 299.375 115.415 298 114.735 Z M 136.817 113.069 C 138.938 111.713 141.102 108.882 142.817 105.224 C 145.2 100.138 145.496 98.33 145.474 89 C 145.453 80.161 145.076 77.666 143.092 73.227 C 141.795 70.327 139.331 66.767 137.617 65.315 L 134.5 62.677 L 137.5 63.399 C 148.837 66.127 155.466 82.17 151.649 97.638 C 149.225 107.462 144.108 113.322 136.834 114.604 L 133.5 115.191 L 136.817 113.069 Z M 171.049 111.75 C 153.013 100.819 155.829 70.357 175.496 63.656 C 178.169 62.745 181.064 62.041 181.928 62.09 C 182.793 62.14 182.067 62.595 180.315 63.102 C 166.751 67.027 161.239 93.366 171.126 107.015 C 172.74 109.243 175.509 111.95 177.28 113.029 C 179.898 114.625 180.117 114.993 178.456 114.996 C 177.331 114.998 173.998 113.537 171.049 111.75 Z M 191.029 112.718 C 201.055 105.644 204.323 86.458 197.72 73.437 C 194.843 67.764 192.838 65.723 187.97 63.513 L 184.5 61.938 L 188 62.591 C 195.544 63.999 201.937 68.884 205.547 76 C 207.745 80.334 208.599 92.106 207.113 97.599 C 204.963 105.548 197.642 113.024 190.5 114.562 L 187.5 115.208 L 191.029 112.718 Z M 226.227 112.884 C 217.186 108.408 212.425 98.799 213.216 86.621 C 214.06 73.597 221.281 64.82 233 62.573 L 236.5 61.902 L 232.263 63.896 C 224.252 67.667 219.393 78.693 220.207 91.254 C 220.903 102.019 225.954 111.387 232.5 114.057 L 234.5 114.873 L 232.5 114.936 C 231.4 114.97 228.577 114.047 226.227 112.884 Z M 244.5 112.898 C 249.129 109.225 250.784 106.943 252.977 101.212 C 258.25 87.431 253.11 68.783 242.684 63.872 L 238.5 61.902 L 242 62.571 C 254.068 64.88 262 75.327 262 88.912 C 262 101.661 254.893 112.077 244.5 114.561 L 241.5 115.278 L 244.5 112.898 Z M 3.946 53.25 C 3.393 51.737 2.7 49.826 2.406 49.002 C 2.113 48.178 3.138 48.685 4.686 50.13 C 9.025 54.179 11.337 55 18.399 55 C 26.817 55 27.134 54.419 26.996 39.22 C 26.937 32.774 26.914 21.762 26.945 14.75 L 27 2 L 31.557 2 C 36.066 2 36.097 2.023 34.557 4.223 C 32.248 7.519 32.248 50.481 34.557 53.777 L 36.113 56 L 20.532 56 L 4.95 56 L 3.946 53.25 Z M 45.443 53.777 C 47.752 50.481 47.752 7.519 45.443 4.223 L 43.887 2 L 50.098 2 C 56.053 2 56.241 2.076 54.655 3.829 C 53.215 5.42 53 8.683 53 29 C 53 49.317 53.215 52.58 54.655 54.171 C 56.241 55.924 56.053 56 50.098 56 L 43.887 56 L 45.443 53.777 Z M 76.25 54.92 C 77.843 53.992 78 51.66 78 29 C 78 6.34 77.843 4.008 76.25 3.08 C 74.942 2.318 76.267 2.061 81.5 2.061 C 86.733 2.061 88.058 2.318 86.75 3.08 C 85.157 4.008 85 6.34 85 29 C 85 51.66 85.157 53.992 86.75 54.92 C 88.058 55.682 86.733 55.939 81.5 55.939 C 76.267 55.939 74.942 55.682 76.25 54.92 Z M 112.345 54.171 C 113.793 52.572 114 49.19 114 27.171 L 114 2 L 117 2 L 120 2 L 120 27.171 C 120 49.19 120.207 52.572 121.655 54.171 C 123.242 55.925 123.05 56 117 56 C 110.95 56 110.758 55.925 112.345 54.171 Z M 14.03 27.592 L 14 22.683 L 16.27 25.092 C 17.954 26.878 18.221 27.702 17.302 28.282 C 16.621 28.712 15.613 29.837 15.062 30.782 C 14.294 32.099 14.054 31.355 14.03 27.592 Z M 95.306 9.5 C 95.585 8.4 96.09 6.263 96.426 4.75 C 96.99 2.216 97.41 2.003 101.769 2.04 L 106.5 2.08 L 103.5 3.619 C 101.85 4.465 99.217 6.585 97.649 8.329 C 95.48 10.741 94.919 11.021 95.306 9.5 Z M 136.604 8.518 C 135.709 7.153 133.295 5.148 131.239 4.062 L 127.5 2.088 L 132.231 2.044 C 136.592 2.003 137.01 2.215 137.574 4.75 C 137.91 6.263 138.399 8.287 138.66 9.25 C 139.329 11.716 138.508 11.424 136.604 8.518 Z M 6.022 8.815 C 6.01 7.888 6.439 5.976 6.975 4.565 C 7.838 2.297 8.503 2.005 12.725 2.04 L 17.5 2.08 L 13.5 4.066 C 11.3 5.158 8.723 7.052 7.772 8.276 C 6.359 10.095 6.04 10.193 6.022 8.815 Z"/></g></svg>
